<svg width="1000" height="334" viewBox="0 0 1000 334" fill="none" xmlns="http://www.w3.org/2000/svg">
<g filter="url(#filter0_f_2030_443)">
<path d="M952.6 279V67.5H860.2C838 67.5 820.8 72.4 808.6 82.2C796.4 91.8 790.3 105.2 790.3 122.4C790.3 135.2 794 146 801.4 154.8C808.8 163.6 818.9 169.5 831.7 172.5V168C821.9 169.4 813.5 172.4 806.5 177C799.5 181.6 794.2 187.5 790.6 194.7C786.8 201.9 784.9 210.3 784.9 219.9C784.9 232.3 787.8 243 793.6 252C799.2 260.8 807.4 267.5 818.2 272.1C829 276.7 841.9 279 856.9 279H952.6ZM915.7 249.9H861.7C856.3 249.9 851.5 249.5 847.3 248.7C842.9 247.9 839.2 246.7 836.2 245.1C833 243.3 830.4 241.1 828.4 238.5C826.2 235.9 824.6 232.9 823.6 229.5C822.6 226.1 822.1 222.3 822.1 218.1C822.1 213.7 822.6 209.8 823.6 206.4C824.6 203 826.2 200.1 828.4 197.7C830.4 195.1 833 193 836.2 191.4C839.2 189.6 842.9 188.3 847.3 187.5C851.5 186.7 856.3 186.3 861.7 186.3H915.7V249.9ZM915.7 157.2H866.8C853.6 157.2 843.8 154.7 837.4 149.7C830.8 144.5 827.5 136.9 827.5 126.9C827.5 116.9 830.8 109.4 837.4 104.4C843.8 99.2 853.6 96.6 866.8 96.6H915.7V157.2Z" fill="#0D53DD" fill-opacity="0.24"/>
<path d="M369.7 282C380.7 282 391.3 281 401.5 279C411.5 277.2 420.8 274.5 429.4 270.9C437.8 267.3 445.3 263 451.9 258L440.2 227.7C433.6 232.3 426.7 236.3 419.5 239.7C412.1 242.9 404.3 245.4 396.1 247.2C387.7 248.8 378.9 249.6 369.7 249.6C353.9 249.6 342.4 247 335.2 241.8C328 236.4 324.4 229.5 324.4 221.1C324.4 216.5 325.5 212.6 327.7 209.4C329.9 206 333.5 203.1 338.5 200.7C343.5 198.3 350.1 196.3 358.3 194.7L391.3 187.8C410.3 183.8 424.5 177.1 433.9 167.7C443.1 158.1 447.7 145.5 447.7 129.9C447.7 116.7 444.2 105.2 437.2 95.4C430.2 85.6 420.5 78 408.1 72.6C395.7 67.2 381.4 64.5 365.2 64.5C355.6 64.5 346.4 65.5 337.6 67.5C328.6 69.3 320.4 72.1 313 75.9C305.4 79.5 298.8 83.9 293.2 89.1L304.9 117.9C313.3 110.9 322.5 105.7 332.5 102.3C342.5 98.7 353.5 96.9 365.5 96.9C374.7 96.9 382.6 98.2 389.2 100.8C395.8 103.4 400.9 107.1 404.5 111.9C407.9 116.5 409.6 122 409.6 128.4C409.6 135.6 407.2 141.4 402.4 145.8C397.6 150 389.4 153.3 377.8 155.7L345.1 162.6C325.3 166.8 310.6 173.4 301 182.4C291.2 191.4 286.3 203.4 286.3 218.4C286.3 231 289.7 242.1 296.5 251.7C303.3 261.3 313 268.8 325.6 274.2C338 279.4 352.7 282 369.7 282Z" fill="#0D53DD" fill-opacity="0.24"/>
<path d="M720.4 279L624.7 67.5H593.2L497.5 279H536.5L562 219.6L545.8 230.1H672.4L656.2 219.6L681.4 279H720.4ZM609.4 109.2L651.4 209.1L659.2 199.5H559L566.5 209.1L608.8 109.2H609.4Z" fill="#0D53DD" fill-opacity="0.24"/>
<path d="M187.6 279V67.5H46.8997V98.1H150.7V156.3H53.4997V186.9H150.7V248.4H46.8997V279H187.6Z" fill="#0D53DD" fill-opacity="0.24"/>
</g>
<defs>
<filter id="filter0_f_2030_443" x="-9.91821e-05" y="17.6" width="999.5" height="311.3" filterUnits="userSpaceOnUse" color-interpolation-filters="sRGB">
<feFlood flood-opacity="0" result="BackgroundImageFix"/>
<feBlend mode="normal" in="SourceGraphic" in2="BackgroundImageFix" result="shape"/>
<feGaussianBlur stdDeviation="23.45" result="effect1_foregroundBlur_2030_443"/>
</filter>
</defs>
</svg>
