<svg width="26" height="24" viewBox="0 0 26 24" fill="none" xmlns="http://www.w3.org/2000/svg">
<path d="M3.25 12.8C3.25 11.5393 3.50219 10.291 3.99217 9.12625C4.48216 7.96153 5.20034 6.90323 6.10571 6.01179C7.01108 5.12034 8.08591 4.41321 9.26884 3.93077C10.4518 3.44832 11.7196 3.20001 13 3.20001C14.2804 3.20001 15.5482 3.44832 16.7312 3.93077C17.9141 4.41321 18.9889 5.12034 19.8943 6.01179C20.7997 6.90323 21.5178 7.96153 22.0078 9.12625C22.4978 10.291 22.75 11.5393 22.75 12.8C22.75 15.3461 21.7228 17.7879 19.8943 19.5882C18.0658 21.3886 15.5859 22.4 13 22.4C10.4141 22.4 7.93419 21.3886 6.10571 19.5882C4.27723 17.7879 3.25 15.3461 3.25 12.8Z" fill="#0E5BFF"/>
<path fill-rule="evenodd" clip-rule="evenodd" d="M13 19.6C14.8317 19.6 16.5883 18.8836 17.8835 17.6083C19.1786 16.3331 19.9063 14.6035 19.9063 12.8C19.9063 10.9965 19.1786 9.26692 17.8835 7.99167C16.5883 6.71643 14.8317 6 13 6C11.1683 6 9.41172 6.71643 8.11654 7.99167C6.82137 9.26692 6.09375 10.9965 6.09375 12.8C6.09375 14.6035 6.82137 16.3331 8.11654 17.6083C9.41172 18.8836 11.1683 19.6 13 19.6ZM12.1875 10.8C11.5148 10.8 10.9688 11.3376 10.9688 12V13.6C10.9688 14.2624 11.5148 14.8 12.1875 14.8H13.8125C14.4853 14.8 15.0312 14.2624 15.0312 13.6V12C15.0312 11.3376 14.4853 10.8 13.8125 10.8H12.1875Z" fill="white"/>
</svg>
