<svg width="63" height="63" viewBox="0 0 63 63" fill="none" xmlns="http://www.w3.org/2000/svg">
<path d="M0 5.971C0 3.9235 -3.65078e-07 2.9015 0.385 2.1175C0.756 1.365 1.365 0.7525 2.121 0.385C2.905 -3.65078e-07 3.927 0 5.971 0H57.029C59.0765 0 60.095 -3.65078e-07 60.8825 0.385C61.635 0.7525 62.244 1.365 62.6115 2.1175C63 2.905 63 3.927 63 5.971V57.029C63 59.0765 63 60.095 62.615 60.8825C62.244 61.635 61.635 62.244 60.8825 62.6115C60.095 63 59.073 63 57.029 63H5.971C3.9235 63 2.905 63 2.1175 62.615C1.36497 62.2452 0.756735 61.6358 0.3885 60.8825C2.08616e-07 60.095 0 59.073 0 57.029V5.971Z" fill="#0000FF"/>
</svg>
