<svg width="21" height="20" viewBox="0 0 21 20" fill="none" xmlns="http://www.w3.org/2000/svg">
<path d="M13.0997 5.12861e-07C13.3587 5.12861e-07 13.6837 0.0680005 13.9447 0.132C14.8547 0.352 15.9337 0.625 16.6997 1.2C17.4127 1.735 17.9667 2.668 18.3947 3.616C19.2847 5.591 19.9037 8.224 20.1177 10.226C20.2197 11.176 20.2447 12.132 20.0617 12.775C19.9717 13.091 19.7767 13.329 19.6397 13.475C19.2217 13.918 18.6837 14.249 18.1517 14.55L17.8877 14.699C17.7138 14.7958 17.5388 14.8904 17.3627 14.983L16.8407 15.253L16.1237 15.61L15.5467 15.894C15.3355 15.9998 15.0938 16.0274 14.8642 15.972C14.6346 15.9166 14.4321 15.7817 14.2924 15.5913C14.1528 15.4008 14.085 15.1671 14.1012 14.9315C14.1173 14.6959 14.2164 14.4736 14.3807 14.304L13.9467 13.436C12.6989 13.8161 11.4011 14.0062 10.0967 14C8.72669 14 7.41969 13.8 6.24669 13.436L5.81369 14.302C5.97865 14.4713 6.0783 14.6936 6.09495 14.9294C6.11161 15.1652 6.0442 15.3992 5.90468 15.5901C5.76516 15.7809 5.56256 15.9161 5.33282 15.9717C5.10308 16.0274 4.86106 15.9998 4.64969 15.894L4.10569 15.624C3.50169 15.326 2.89769 15.028 2.30969 14.699C1.69569 14.356 1.04469 13.991 0.557694 13.474C0.363441 13.2775 0.218784 13.0375 0.135694 12.774C-0.0483061 12.132 -0.0223061 11.177 0.0786939 10.226C0.292694 8.224 0.911694 5.591 1.80269 3.616C2.22969 2.668 2.78369 1.735 3.49669 1.2C4.26269 0.625 5.34169 0.352 6.25169 0.132C6.51269 0.0680005 6.83669 5.12861e-07 7.09669 5.12861e-07C7.24051 -0.000123685 7.38267 0.0307758 7.51346 0.090591C7.64425 0.150406 7.7606 0.23773 7.85457 0.346604C7.94854 0.455478 8.01793 0.583341 8.05799 0.721469C8.09804 0.859598 8.10784 1.00474 8.08669 1.147C8.75229 1.04978 9.42403 1.00065 10.0967 1C10.7877 1 11.4627 1.05 12.1107 1.148C12.0894 1.00567 12.0991 0.860414 12.1391 0.722162C12.179 0.583911 12.2484 0.455919 12.3424 0.34693C12.4364 0.237941 12.5528 0.150524 12.6837 0.0906496C12.8145 0.0307753 12.9558 -0.000145235 13.0997 5.12861e-07ZM14.4537 2.363C14.3037 2.315 14.2677 2.336 14.2137 2.426L14.1517 2.538C13.9901 2.81506 13.7447 3.03367 13.4508 3.16234C13.157 3.29102 12.8299 3.32311 12.5167 3.254C11.7214 3.08324 10.9101 2.99809 10.0967 3C9.24469 3 8.42969 3.09 7.67669 3.254C7.36346 3.32311 7.03638 3.29102 6.74256 3.16234C6.44873 3.03367 6.20333 2.81506 6.04169 2.538L5.97969 2.427C5.92669 2.337 5.89069 2.316 5.74169 2.363C5.38569 2.476 5.00369 2.597 4.69669 2.8C4.40969 3.015 4.02669 3.55 3.62569 4.439C2.85969 6.136 2.25969 8.643 2.06769 10.439C2.02769 10.819 2.00569 11.143 2.00169 11.411V11.705C2.00636 11.883 2.01803 12.0237 2.03669 12.127C2.29069 12.375 2.60469 12.57 2.91969 12.749L3.60169 13.126L4.04769 13.361L4.41169 12.633C4.23546 12.4688 4.12442 12.2465 4.09899 12.007C4.07356 11.7674 4.13545 11.5268 4.27327 11.3292C4.4111 11.1317 4.6156 10.9905 4.84918 10.9317C5.08277 10.8728 5.32974 10.9003 5.54469 11.009C6.76069 11.62 8.34269 12 10.0967 12C11.8507 12 13.4327 11.618 14.6487 11.01C14.8545 10.9069 15.0895 10.878 15.3141 10.928C15.5388 10.9781 15.7393 11.1041 15.8818 11.2848C16.0243 11.4655 16.1001 11.6899 16.0965 11.92C16.0928 12.1501 16.0099 12.3719 15.8617 12.548L15.7817 12.633L16.1457 13.363C16.4437 13.2077 16.7427 13.0467 17.0427 12.88C17.4327 12.664 17.8427 12.437 18.1597 12.127C18.1777 12.0237 18.1894 11.883 18.1947 11.705V11.411C18.1871 11.0859 18.1651 10.7612 18.1287 10.438C17.9367 8.643 17.3367 6.136 16.5707 4.438C16.1707 3.55 15.7867 3.015 15.5007 2.8C15.1927 2.597 14.8107 2.476 14.4537 2.363ZM6.84669 6.5C7.31082 6.5 7.75594 6.68437 8.08413 7.01256C8.41232 7.34075 8.59669 7.78587 8.59669 8.25C8.59669 8.71413 8.41232 9.15925 8.08413 9.48744C7.75594 9.81563 7.31082 10 6.84669 10C6.38257 10 5.93745 9.81563 5.60926 9.48744C5.28107 9.15925 5.09669 8.71413 5.09669 8.25C5.09669 7.78587 5.28107 7.34075 5.60926 7.01256C5.93745 6.68437 6.38257 6.5 6.84669 6.5ZM13.3467 6.5C13.8108 6.5 14.2559 6.68437 14.5841 7.01256C14.9123 7.34075 15.0967 7.78587 15.0967 8.25C15.0967 8.71413 14.9123 9.15925 14.5841 9.48744C14.2559 9.81563 13.8108 10 13.3467 10C12.8826 10 12.4374 9.81563 12.1093 9.48744C11.7811 9.15925 11.5967 8.71413 11.5967 8.25C11.5967 7.78587 11.7811 7.34075 12.1093 7.01256C12.4374 6.68437 12.8826 6.5 13.3467 6.5Z" fill="#1E1E1E"/>
</svg>
