<svg width="24" height="24" viewBox="0 0 24 24" fill="none" xmlns="http://www.w3.org/2000/svg">
<g clip-path="url(#clip0_2015_184)">
<path fill-rule="evenodd" clip-rule="evenodd" d="M9.73176 2.40514C7.75032 2.87587 5.9629 3.94776 4.6144 5.47395C3.26591 7.00013 2.42231 8.90596 2.19919 10.9303H6.80376C7.11748 7.896 8.12205 4.98171 9.73176 2.40514ZM14.2678 2.40514C15.8834 4.98528 16.8852 7.90191 17.1958 10.9303H21.8003C21.5772 8.90596 20.7336 7.00013 19.3851 5.47395C18.0366 3.94776 16.2492 2.87587 14.2678 2.40514ZM15.0392 10.9303C14.7023 8.03061 13.6587 5.25801 11.9998 2.856C10.3409 5.25801 9.29717 8.03061 8.96033 10.9303H15.0392ZM8.96033 13.0731H15.0392C14.7023 15.9728 13.6587 18.7454 11.9998 21.1474C10.3409 18.7454 9.29717 15.9728 8.96033 13.0731ZM6.80376 13.0731H2.19919C2.42231 15.0975 3.26591 17.0033 4.6144 18.5295C5.9629 20.0557 7.75032 21.1276 9.73176 21.5983C8.11608 19.0182 7.11435 16.1015 6.80376 13.0731ZM14.2678 21.5983C15.8834 19.0182 16.8852 16.1015 17.1958 13.0731H21.8003C21.5772 15.0975 20.7336 17.0033 19.3851 18.5295C18.0366 20.0557 16.2492 21.1276 14.2678 21.5983ZM11.9998 24.0034C13.5758 24.0034 15.1365 23.693 16.5926 23.0899C18.0487 22.4867 19.3718 21.6027 20.4863 20.4882C21.6007 19.3737 22.4848 18.0507 23.0879 16.5946C23.691 15.1385 24.0015 13.5778 24.0015 12.0017C24.0015 10.4256 23.691 8.86497 23.0879 7.40886C22.4848 5.95274 21.6007 4.62968 20.4863 3.51522C19.3718 2.40076 18.0487 1.51672 16.5926 0.913576C15.1365 0.310433 13.5758 -2.34855e-08 11.9998 0C8.81671 4.74312e-08 5.76403 1.26446 3.51327 3.51522C1.26251 5.76598 -0.00195312 8.81866 -0.00195312 12.0017C-0.00195313 15.1848 1.26251 18.2375 3.51327 20.4882C5.76403 22.739 8.81671 24.0034 11.9998 24.0034Z" fill="#0E2452"/>
</g>
<defs>
<clipPath id="clip0_2015_184">
<rect width="24" height="24" fill="white"/>
</clipPath>
</defs>
</svg>
